<?xml version="1.0" encoding="utf-8"?>
<!-- Generator: Adobe Illustrator 22.1.0, SVG Export Plug-In . SVG Version: 6.00 Build 0)  -->
<svg version="1.1" id="Layer_1" xmlns="http://www.w3.org/2000/svg" xmlns:xlink="http://www.w3.org/1999/xlink" x="0px" y="0px"
	 width="24px" height="24px" viewBox="0 0 24 24" style="enable-background:new 0 0 24 24;" xml:space="preserve">
<style type="text/css">
	.st0{fill:#646464;}
</style>
<path class="st0" d="M21,2v1c0,1.1-0.9,2-2,2s-2-0.9-2-2V2H7v1c0,1.1-0.9,2-2,2S3,4.1,3,3V2H0v22h24V2H21z M22,22H2V8h20V22z"/>
<path class="st0" d="M20,1c0-0.6-0.4-1-1-1s-1,0.4-1,1v2c0,0.6,0.4,1,1,1s1-0.4,1-1V1z"/>
<path class="st0" d="M6,3c0,0.6-0.4,1-1,1S4,3.6,4,3V1c0-0.6,0.4-1,1-1s1,0.4,1,1V3z"/>
</svg>
