<svg xmlns="http://www.w3.org/2000/svg" viewBox="0 0 525.1 191.4"><defs><style>.cls-1{fill:#fff;}</style></defs><g id="Capa_2" data-name="Capa 2"><g id="Layer_1" data-name="Layer 1"><path class="cls-1" d="M4.2,65.3V0H23.9A28.89,28.89,0,0,1,35.8,2.5a30.21,30.21,0,0,1,9.9,7,35.33,35.33,0,0,1,6.8,10.4A31.63,31.63,0,0,1,55,32.6a31.3,31.3,0,0,1-2.5,12.7,36.68,36.68,0,0,1-6.8,10.4,30.21,30.21,0,0,1-9.9,7,28.56,28.56,0,0,1-11.9,2.5H4.2Zm19.7-9.4a18.57,18.57,0,0,0,7.9-1.8,21.87,21.87,0,0,0,6.8-4.9,23.64,23.64,0,0,0,4.8-7.4,23.37,23.37,0,0,0,1.8-9.3,23.37,23.37,0,0,0-1.8-9.3,24.84,24.84,0,0,0-4.8-7.4,21.87,21.87,0,0,0-6.8-4.9,18.57,18.57,0,0,0-7.9-1.8H14.1V55.7h9.8Z"/><path class="cls-1" d="M104.9,51.8a28.1,28.1,0,0,1-2.9,5.4,22.45,22.45,0,0,1-4.2,4.5,18.77,18.77,0,0,1-5.8,3,23.8,23.8,0,0,1-7.3,1.1A21.18,21.18,0,0,1,76,64a22,22,0,0,1-7.1-4.9,24.11,24.11,0,0,1-4.8-7.5,28,28,0,0,1,0-19.2A22.14,22.14,0,0,1,75.7,20a20.47,20.47,0,0,1,8.4-1.8A19.8,19.8,0,0,1,92.5,20a20.17,20.17,0,0,1,6.9,4.9,23.88,23.88,0,0,1,4.7,7.5,26.87,26.87,0,0,1,1.7,9.6,8.08,8.08,0,0,1-.1,1.6c-.1.5-.1,1-.2,1.3-.1.5-.1.9-.2,1.2H72.2a11.45,11.45,0,0,0,1.2,4.1A15.17,15.17,0,0,0,76,53.7a12.3,12.3,0,0,0,3.8,2.4,12.67,12.67,0,0,0,4.7.9,11.1,11.1,0,0,0,6.7-1.8,13.24,13.24,0,0,0,3.6-3.4ZM84.1,26.9a11,11,0,0,0-7.9,3.2,14.48,14.48,0,0,0-4,8.2H97.1A14.28,14.28,0,0,0,93,30.1,12.6,12.6,0,0,0,84.1,26.9Z"/><path class="cls-1" d="M137.8,18.1a18,18,0,0,1,7.3,1.5,19.38,19.38,0,0,1,6,4.1,19.85,19.85,0,0,1,4,6.4,21.76,21.76,0,0,1,1.5,8.2V65.2h-9.3V38.3a11.17,11.17,0,0,0-.9-4.4,11.35,11.35,0,0,0-2.4-3.6,12.43,12.43,0,0,0-3.5-2.5,9.78,9.78,0,0,0-4.1-.9,11.3,11.3,0,0,0-4.5.9,11.6,11.6,0,0,0-3.6,2.5,9.9,9.9,0,0,0-2.4,3.6,10.82,10.82,0,0,0-.9,4.4V65.2h-9.3V18.6h6.7l2.1,4.7a16.51,16.51,0,0,1,3.2-2.6,29.25,29.25,0,0,1,4.2-1.8A19.08,19.08,0,0,1,137.8,18.1Z"/><path class="cls-1" d="M215.5,18.1a18,18,0,0,1,7.3,1.5,19.38,19.38,0,0,1,6,4.1,19.85,19.85,0,0,1,4,6.4,21.76,21.76,0,0,1,1.5,8.2V65.2h-9.5V38.3a11.17,11.17,0,0,0-.9-4.4,11.35,11.35,0,0,0-2.4-3.6,12.43,12.43,0,0,0-3.5-2.5,9.78,9.78,0,0,0-4.1-.9,11.3,11.3,0,0,0-4.5.9,11.6,11.6,0,0,0-3.6,2.5,9.9,9.9,0,0,0-2.4,3.6,10.82,10.82,0,0,0-.9,4.4V65.2h-9.3V18.6h6.7l2.1,4.7a16.51,16.51,0,0,1,3.2-2.6,29.25,29.25,0,0,1,4.2-1.8A22,22,0,0,1,215.5,18.1Z"/><path class="cls-1" d="M287.7,42a26.87,26.87,0,0,1-1.7,9.6,21,21,0,0,1-4.8,7.5,22,22,0,0,1-7.1,4.9,21.93,21.93,0,0,1-17.4,0,22,22,0,0,1-7.1-4.9,24.11,24.11,0,0,1-4.8-7.5,28,28,0,0,1,0-19.2,21,21,0,0,1,4.8-7.5,22,22,0,0,1,7.1-4.9,21.93,21.93,0,0,1,17.4,0,22,22,0,0,1,7.1,4.9A23.82,23.82,0,0,1,287.7,42Zm-9.3,0a17.39,17.39,0,0,0-1.1-6.1,18.91,18.91,0,0,0-2.8-4.8,13.47,13.47,0,0,0-4.1-3.1,11.46,11.46,0,0,0-9.8,0,11.43,11.43,0,0,0-4.1,3.1,14.14,14.14,0,0,0-2.8,4.8,17,17,0,0,0-1.1,6.1,16.9,16.9,0,0,0,3.9,10.9,13.47,13.47,0,0,0,4.1,3.1,11.46,11.46,0,0,0,9.8,0,11.43,11.43,0,0,0,4.1-3.1,14.14,14.14,0,0,0,2.8-4.8A17.39,17.39,0,0,0,278.4,42Z"/><path class="cls-1" d="M318,18.1a4.51,4.51,0,0,1,1.3.1c.3.1.7.1.9.2s.6.1.8.2v9.3c-.3-.1-.6-.1-.9-.2s-.7-.1-1.1-.2a4.1,4.1,0,0,0-1.1-.1,11.3,11.3,0,0,0-4.5.9,11.6,11.6,0,0,0-3.6,2.5,9.9,9.9,0,0,0-2.4,3.6,10.82,10.82,0,0,0-.9,4.4V65.2h-9.3V18.6h6.7l2.1,4.7a12.78,12.78,0,0,1,3-2.6,25.67,25.67,0,0,1,3.7-1.8A16.42,16.42,0,0,1,318,18.1Z"/><path class="cls-1" d="M335.7,50.2a7.89,7.89,0,0,0,2.4,4.9c1.3,1.2,3.3,1.8,5.9,1.8,2.9,0,5-.6,6.3-1.7a5.21,5.21,0,0,0,2-4,3.51,3.51,0,0,0-1.9-3.2,17.66,17.66,0,0,0-4.6-1.8q-2.7-.75-6-1.5a30.72,30.72,0,0,1-6-2.2,14.49,14.49,0,0,1-4.6-3.9,10.78,10.78,0,0,1-1.9-6.6,14.08,14.08,0,0,1,1.1-5.4,14.24,14.24,0,0,1,3.2-4.5,14.83,14.83,0,0,1,5-3,20,20,0,0,1,6.7-1.1c5.5,0,9.6,1.3,12.4,3.9a15.21,15.21,0,0,1,4.7,10.6h-9.3a7.09,7.09,0,0,0-2.3-4,9.66,9.66,0,0,0-10.8-.1,5,5,0,0,0-1.9,3.6,3.51,3.51,0,0,0,1.9,3.2,20.06,20.06,0,0,0,4.6,1.8q2.7.75,6,1.5a30.72,30.72,0,0,1,6,2.2,12.47,12.47,0,0,1,4.6,3.9,10.78,10.78,0,0,1,1.9,6.6,13.7,13.7,0,0,1-4.5,10.4c-3,2.8-7.2,4.1-12.6,4.1-5.7,0-10-1.3-12.9-4s-4.4-6.5-4.7-11.5Z"/><path class="cls-1" d="M398.7,65.3,380.6,43V65.3h-9.3V0h9.3V38.9l16.1-20.2h10.9L389.5,40.5l20.7,24.9H398.7Z"/><path class="cls-1" d="M453.2,51.8a28.1,28.1,0,0,1-2.9,5.4,22.45,22.45,0,0,1-4.2,4.5,18.77,18.77,0,0,1-5.8,3,23.8,23.8,0,0,1-7.3,1.1,21.18,21.18,0,0,1-8.7-1.8,22,22,0,0,1-7.1-4.9,24.11,24.11,0,0,1-4.8-7.5,28,28,0,0,1,0-19.2A22.14,22.14,0,0,1,424,20a20.47,20.47,0,0,1,8.4-1.8,21.13,21.13,0,0,1,15.3,6.7,23.88,23.88,0,0,1,4.7,7.5,26.87,26.87,0,0,1,1.7,9.6,8.08,8.08,0,0,1-.1,1.6c-.1.5-.1,1-.2,1.3-.1.5-.1.9-.2,1.2H420.4a11.45,11.45,0,0,0,1.2,4.1,15.17,15.17,0,0,0,2.6,3.5,12.3,12.3,0,0,0,3.8,2.4,12.67,12.67,0,0,0,4.7.9,11.1,11.1,0,0,0,6.7-1.8,13.24,13.24,0,0,0,3.6-3.4ZM432.4,26.9a11,11,0,0,0-7.9,3.2,14.48,14.48,0,0,0-4,8.2h24.9a14.28,14.28,0,0,0-4.1-8.2A12.6,12.6,0,0,0,432.4,26.9Z"/><path class="cls-1" d="M22.3,174.1a21.18,21.18,0,0,1-8.7-1.8,22,22,0,0,1-7.1-4.9,24.11,24.11,0,0,1-4.8-7.5,28,28,0,0,1,0-19.2,21,21,0,0,1,4.8-7.5,22,22,0,0,1,7.1-4.9,21.18,21.18,0,0,1,8.7-1.8,19.11,19.11,0,0,1,5.7.8,21.59,21.59,0,0,1,4,1.8,16.51,16.51,0,0,1,3.2,2.6V108.4h9.3v65.3H37.8L35.7,169a15.72,15.72,0,0,1-7.4,4.4A20.58,20.58,0,0,1,22.3,174.1Zm.5-38.8a12.63,12.63,0,0,0-5.1,1.1,13.13,13.13,0,0,0-4.3,3.1,16.35,16.35,0,0,0-3,4.8,17,17,0,0,0-1.1,6.1,17.39,17.39,0,0,0,1.1,6.1,15,15,0,0,0,3,4.8,13.13,13.13,0,0,0,4.3,3.1,12.37,12.37,0,0,0,10.2,0,13.13,13.13,0,0,0,4.3-3.1,16.35,16.35,0,0,0,3-4.8,15.39,15.39,0,0,0,1.1-6.1,17.39,17.39,0,0,0-1.1-6.1,15,15,0,0,0-3-4.8,13.13,13.13,0,0,0-4.3-3.1A10.89,10.89,0,0,0,22.8,135.3Z"/><path class="cls-1" d="M92.3,173.6l-2.1-4.7a15.72,15.72,0,0,1-7.4,4.4,21.49,21.49,0,0,1-6.1.8,21.18,21.18,0,0,1-8.7-1.8,22,22,0,0,1-7.1-4.9,24.11,24.11,0,0,1-4.8-7.5,28,28,0,0,1,0-19.2,21,21,0,0,1,4.8-7.5,22,22,0,0,1,7.1-4.9,21.18,21.18,0,0,1,8.7-1.8,22,22,0,0,1,6.1.8,21.11,21.11,0,0,1,4.2,1.8,16.51,16.51,0,0,1,3.2,2.6l2.1-4.7H99v46.6ZM63.8,150.3a17.39,17.39,0,0,0,1.1,6.1,13.94,13.94,0,0,0,3,4.8,13.13,13.13,0,0,0,4.3,3.1,12.37,12.37,0,0,0,10.2,0,13.13,13.13,0,0,0,4.3-3.1,16.35,16.35,0,0,0,3-4.8,15.39,15.39,0,0,0,1.1-6.1,17.39,17.39,0,0,0-1.1-6.1,15,15,0,0,0-3-4.8,13.13,13.13,0,0,0-4.3-3.1,12.37,12.37,0,0,0-10.2,0,13.13,13.13,0,0,0-4.3,3.1,16.35,16.35,0,0,0-3,4.8A17,17,0,0,0,63.8,150.3Z"/><path class="cls-1" d="M123.9,158.1a7.17,7.17,0,0,0,7.3,7.3,4.48,4.48,0,0,0,1.1-.1,4.25,4.25,0,0,0,1.1-.2,9.44,9.44,0,0,0,.9-.3v8.3a5.78,5.78,0,0,1-1.4.5,13.24,13.24,0,0,1-3.7.5,15.75,15.75,0,0,1-5.8-1.1,13.6,13.6,0,0,1-4.6-3.2,16.88,16.88,0,0,1-3.1-5,20,20,0,0,1-1.1-6.7V135.8h-8.3V127h3.6a6.15,6.15,0,0,0,6.3-6.3v-6.2H124v12.4h10.4v8.8H124v22.4Z"/><path class="cls-1" d="M177.6,173.6l-2.1-4.7a15.72,15.72,0,0,1-7.4,4.4,21.49,21.49,0,0,1-6.1.8,21.18,21.18,0,0,1-8.7-1.8,22,22,0,0,1-7.1-4.9,24.11,24.11,0,0,1-4.8-7.5,28,28,0,0,1,0-19.2,21,21,0,0,1,4.8-7.5,22,22,0,0,1,7.1-4.9,21.18,21.18,0,0,1,8.7-1.8,22,22,0,0,1,6.1.8,21.11,21.11,0,0,1,4.2,1.8,16.51,16.51,0,0,1,3.2,2.6l2.1-4.7h6.7v46.6Zm-28.5-23.3a17.39,17.39,0,0,0,1.1,6.1,13.94,13.94,0,0,0,3,4.8,13.13,13.13,0,0,0,4.3,3.1,12.37,12.37,0,0,0,10.2,0,13.13,13.13,0,0,0,4.3-3.1,16.35,16.35,0,0,0,3-4.8,15.39,15.39,0,0,0,1.1-6.1,17.39,17.39,0,0,0-1.1-6.1,15,15,0,0,0-3-4.8,13.13,13.13,0,0,0-4.3-3.1,12.37,12.37,0,0,0-10.2,0,13.13,13.13,0,0,0-4.3,3.1,16.35,16.35,0,0,0-3,4.8A17,17,0,0,0,149.1,150.3Z"/><path class="cls-1" d="M218.1,135.8H207.8v37.8h-9.3V135.8h-5.7V127h5.7v-3.1a20,20,0,0,1,1.1-6.7,12.83,12.83,0,0,1,3.1-5,13.18,13.18,0,0,1,4.6-3.2,14,14,0,0,1,5.8-1.1,12.48,12.48,0,0,1,2.1.2,8.47,8.47,0,0,1,1.7.4,13.14,13.14,0,0,0,1.5.5v8.3c-.3-.1-.6-.1-.9-.2s-.7-.1-1.1-.2a4.1,4.1,0,0,0-1.1-.1,7.17,7.17,0,0,0-7.3,7.3v3.1h10.4v8.6Z"/><path class="cls-1" d="M267,150.3a26.87,26.87,0,0,1-1.7,9.6,21,21,0,0,1-4.8,7.5,22,22,0,0,1-7.1,4.9,21.93,21.93,0,0,1-17.4,0,22,22,0,0,1-7.1-4.9,24.11,24.11,0,0,1-4.8-7.5,28,28,0,0,1,0-19.2,21,21,0,0,1,4.8-7.5,22,22,0,0,1,7.1-4.9,21.93,21.93,0,0,1,17.4,0,22,22,0,0,1,7.1,4.9,24.11,24.11,0,0,1,4.8,7.5A26.48,26.48,0,0,1,267,150.3Zm-9.3,0a17.39,17.39,0,0,0-1.1-6.1,18.91,18.91,0,0,0-2.8-4.8,13.47,13.47,0,0,0-4.1-3.1,11.46,11.46,0,0,0-9.8,0,11.43,11.43,0,0,0-4.1,3.1,14.14,14.14,0,0,0-2.8,4.8,17,17,0,0,0-1.1,6.1,16.9,16.9,0,0,0,3.9,10.9,13.47,13.47,0,0,0,4.1,3.1,11.7,11.7,0,0,0,4.9,1.1,12.06,12.06,0,0,0,4.9-1.1,11.43,11.43,0,0,0,4.1-3.1,14.14,14.14,0,0,0,2.8-4.8A17.39,17.39,0,0,0,257.7,150.3Z"/><path class="cls-1" d="M297.2,126.4a4.51,4.51,0,0,1,1.3.1c.3.1.7.1.9.2s.6.1.8.2v9.3c-.3-.1-.6-.1-.9-.2s-.7-.1-1.1-.2a4.1,4.1,0,0,0-1.1-.1,11.3,11.3,0,0,0-4.5.9,11.6,11.6,0,0,0-3.6,2.5,9.9,9.9,0,0,0-2.4,3.6,10.82,10.82,0,0,0-.9,4.4v26.4h-9.3V126.9h6.7l2.1,4.7a12.78,12.78,0,0,1,3-2.6,25.67,25.67,0,0,1,3.7-1.8A17.35,17.35,0,0,1,297.2,126.4Z"/><path class="cls-1" d="M347.4,160.1a28.1,28.1,0,0,1-2.9,5.4,22.45,22.45,0,0,1-4.2,4.5,18.77,18.77,0,0,1-5.8,3,23.8,23.8,0,0,1-7.3,1.1,21.18,21.18,0,0,1-8.7-1.8,22,22,0,0,1-7.1-4.9,24.11,24.11,0,0,1-4.8-7.5,28,28,0,0,1,0-19.2,22.14,22.14,0,0,1,11.6-12.4,20.47,20.47,0,0,1,8.4-1.8,21.13,21.13,0,0,1,15.3,6.7,23.88,23.88,0,0,1,4.7,7.5,24.85,24.85,0,0,1,1.7,9.6,8.08,8.08,0,0,1-.1,1.6c-.1.5-.1,1-.2,1.3-.1.5-.1.9-.2,1.2H314.6a11.45,11.45,0,0,0,1.2,4.1,15.17,15.17,0,0,0,2.6,3.5,12.3,12.3,0,0,0,3.8,2.4,12.67,12.67,0,0,0,4.7.9,11.1,11.1,0,0,0,6.7-1.8,13.24,13.24,0,0,0,3.6-3.4Zm-20.8-24.8a11,11,0,0,0-7.9,3.2,14.48,14.48,0,0,0-4,8.2h24.9a14.28,14.28,0,0,0-4.1-8.2A12.18,12.18,0,0,0,326.6,135.3Z"/><path class="cls-1" d="M380.3,126.4a18,18,0,0,1,7.3,1.5,19.38,19.38,0,0,1,6,4.1,19.85,19.85,0,0,1,4,6.4,21.76,21.76,0,0,1,1.5,8.2v26.9h-9.3V146.6a11.17,11.17,0,0,0-.9-4.4,11.35,11.35,0,0,0-2.4-3.6,12.43,12.43,0,0,0-3.5-2.5,9.78,9.78,0,0,0-4.1-.9,11.3,11.3,0,0,0-4.5.9,11.6,11.6,0,0,0-3.6,2.5,9.9,9.9,0,0,0-2.4,3.6,10.82,10.82,0,0,0-.9,4.4v26.9h-9.3V126.9h6.7l2.1,4.7a16.51,16.51,0,0,1,3.2-2.6,29.25,29.25,0,0,1,4.2-1.8A19.08,19.08,0,0,1,380.3,126.4Z"/><path class="cls-1" d="M415,119.7a5.44,5.44,0,0,1-4-1.7,5.61,5.61,0,0,1-1.7-4,5.44,5.44,0,0,1,1.7-4,5.61,5.61,0,0,1,4-1.7,5.44,5.44,0,0,1,4,1.7,5.61,5.61,0,0,1,1.7,4,5.44,5.44,0,0,1-1.7,4A5,5,0,0,1,415,119.7Zm4.7,53.9h-9.3V127h9.3Z"/><path class="cls-1" d="M454.1,126.4a18,18,0,0,1,7.3,1.5,19.38,19.38,0,0,1,6,4.1,19.85,19.85,0,0,1,4,6.4,21.76,21.76,0,0,1,1.5,8.2v26.9h-9.3V146.6a11.17,11.17,0,0,0-.9-4.4,11.35,11.35,0,0,0-2.4-3.6,12.43,12.43,0,0,0-3.5-2.5,9.78,9.78,0,0,0-4.1-.9,11.3,11.3,0,0,0-4.5.9,11.6,11.6,0,0,0-3.6,2.5,9.9,9.9,0,0,0-2.4,3.6,10.82,10.82,0,0,0-.9,4.4v26.9h-9.5V126.9h6.7l2.1,4.7a16.51,16.51,0,0,1,3.2-2.6,29.25,29.25,0,0,1,4.2-1.8A21.49,21.49,0,0,1,454.1,126.4Z"/><path class="cls-1" d="M525.1,127v44.6a20.58,20.58,0,0,1-1.5,7.9,19.33,19.33,0,0,1-4.2,6.3,18.89,18.89,0,0,1-6.7,4.1,24.62,24.62,0,0,1-8.8,1.5,23.47,23.47,0,0,1-7.7-1.2,19.13,19.13,0,0,1-6-3.2,18.27,18.27,0,0,1-4.2-4.6,20.45,20.45,0,0,1-2.4-5.5h9.3a12.36,12.36,0,0,0,3.7,4.3c1.7,1.3,4.1,1.9,7.2,1.9a11.78,11.78,0,0,0,8.7-3.2,11.23,11.23,0,0,0,3.2-8.2V167a16.51,16.51,0,0,1-3.2,2.6,18.53,18.53,0,0,1-4,1.8,19.74,19.74,0,0,1-13.8-1,21.9,21.9,0,0,1-11.4-12,24.42,24.42,0,0,1-1.7-9,24,24,0,0,1,1.7-9,21.9,21.9,0,0,1,11.4-12,19.12,19.12,0,0,1,8.1-1.8,22,22,0,0,1,6.1.8,21.11,21.11,0,0,1,4.2,1.8,16.51,16.51,0,0,1,3.2,2.6l2.1-4.7h6.7ZM504,163.2a11.25,11.25,0,0,0,4.8-1.1,12.08,12.08,0,0,0,4.1-3,14.84,14.84,0,0,0,2.8-4.5,13.8,13.8,0,0,0,0-10.8,17.09,17.09,0,0,0-2.8-4.5,13.13,13.13,0,0,0-4.1-3,11.46,11.46,0,0,0-9.8,0,11.18,11.18,0,0,0-4.1,3,14.84,14.84,0,0,0-2.8,4.5,13.8,13.8,0,0,0,0,10.8,15.12,15.12,0,0,0,2.9,4.5,13.13,13.13,0,0,0,4.1,3A10.09,10.09,0,0,0,504,163.2Z"/></g></g></svg>