<?xml version="1.0" encoding="utf-8"?>
<!-- Generator: Adobe Illustrator 23.0.3, SVG Export Plug-In . SVG Version: 6.00 Build 0)  -->
<svg version="1.1" id="Layer_1" xmlns="http://www.w3.org/2000/svg" xmlns:xlink="http://www.w3.org/1999/xlink" x="0px" y="0px"
	 viewBox="0 0 525 191" style="enable-background:new 0 0 525 191;" xml:space="preserve">
<style type="text/css">
	.st0{fill:#053742;}
</style>
<g>
	<g>
		<g>
			<path class="st0" d="M4.4,65.1V-0.2h19.7c4.1,0,8.1,0.8,11.9,2.5c3.8,1.7,7.1,4,9.9,7c2.8,3,5.1,6.4,6.8,10.4
				c1.7,3.9,2.5,8.2,2.5,12.7c0,4.6-0.8,8.8-2.5,12.7c-1.7,3.9-4,7.4-6.8,10.4c-2.8,3-6.1,5.3-9.9,7c-3.8,1.7-7.7,2.5-11.9,2.5H4.4z
				 M24.1,55.7c2.7,0,5.3-0.6,7.9-1.8c2.6-1.2,4.8-2.8,6.8-4.9c2-2.1,3.6-4.5,4.8-7.4c1.2-2.8,1.8-5.9,1.8-9.3
				c0-3.4-0.6-6.5-1.8-9.3c-1.2-2.8-2.8-5.3-4.8-7.4c-2-2.1-4.2-3.7-6.8-4.9c-2.6-1.2-5.2-1.8-7.9-1.8h-9.8v46.6H24.1z"/>
			<path class="st0" d="M105.1,51.6c-0.8,1.9-1.7,3.7-2.9,5.4c-1.2,1.7-2.6,3.2-4.2,4.5c-1.7,1.3-3.6,2.3-5.8,3
				c-2.2,0.7-4.6,1.1-7.3,1.1c-3.1,0-6-0.6-8.7-1.8c-2.7-1.2-5.1-2.8-7.1-4.9c-2-2.1-3.6-4.6-4.8-7.5c-1.1-2.9-1.7-6.1-1.7-9.6
				c0-3.5,0.6-6.7,1.7-9.6c1.1-2.9,2.7-5.4,4.7-7.5c2-2.1,4.3-3.7,6.9-4.9c2.7-1.2,5.5-1.8,8.4-1.8c3,0,5.8,0.6,8.4,1.8
				c2.7,1.2,5,2.8,6.9,4.9c2,2.1,3.5,4.6,4.7,7.5c1.1,2.9,1.7,6.1,1.7,9.6c0,0.6,0,1.1-0.1,1.6c-0.1,0.5-0.1,1-0.2,1.3
				c-0.1,0.5-0.1,0.9-0.2,1.2H72.4c0.1,1.5,0.6,2.8,1.2,4.1c0.7,1.3,1.6,2.5,2.6,3.5c1.1,1,2.3,1.8,3.8,2.4c1.5,0.6,3.1,0.9,4.7,0.9
				c2.8,0,5.1-0.6,6.7-1.8c1.7-1.2,2.9-2.3,3.6-3.4H105.1z M84.3,26.7c-3.1,0-5.7,1.1-7.9,3.2c-2.1,2.1-3.5,4.9-4,8.2h24.9
				c-0.6-3.4-1.9-6.1-4.1-8.2C90.9,27.8,88,26.7,84.3,26.7z"/>
			<path class="st0" d="M138,17.9c2.6,0,5,0.5,7.3,1.5c2.3,1,4.3,2.4,6,4.1c1.7,1.8,3,3.9,4,6.4c1,2.5,1.5,5.2,1.5,8.2v26.9h-9.3
				V38.1c0-1.5-0.3-3-0.9-4.4c-0.6-1.4-1.4-2.6-2.4-3.6c-1-1-2.2-1.9-3.5-2.5c-1.3-0.6-2.7-0.9-4.1-0.9c-1.6,0-3.1,0.3-4.5,0.9
				c-1.4,0.6-2.6,1.5-3.6,2.5c-1,1-1.9,2.2-2.4,3.6c-0.6,1.4-0.9,2.8-0.9,4.4v26.9h-9.3V18.4h6.7l2.1,4.7c0.9-1,2-1.8,3.2-2.6
				c1.1-0.6,2.5-1.2,4.2-1.8C133.6,18.2,135.6,17.9,138,17.9z"/>
			<path class="st0" d="M215.7,17.9c2.6,0,5,0.5,7.3,1.5c2.3,1,4.3,2.4,6,4.1c1.7,1.8,3,3.9,4,6.4c1,2.5,1.5,5.2,1.5,8.2v26.9H225
				V38.1c0-1.5-0.3-3-0.9-4.4c-0.6-1.4-1.4-2.6-2.4-3.6c-1-1-2.2-1.9-3.5-2.5c-1.3-0.6-2.7-0.9-4.1-0.9c-1.6,0-3.1,0.3-4.5,0.9
				c-1.4,0.6-2.6,1.5-3.6,2.5c-1,1-1.9,2.2-2.4,3.6c-0.6,1.4-0.9,2.8-0.9,4.4v26.9h-9.3V18.4h6.7l2.1,4.7c0.9-1,2-1.8,3.2-2.6
				c1.1-0.6,2.5-1.2,4.2-1.8C211.3,18.2,213.4,17.9,215.7,17.9z"/>
			<path class="st0" d="M287.9,41.8c0,3.5-0.6,6.7-1.7,9.6c-1.1,2.9-2.7,5.4-4.8,7.5c-2,2.1-4.4,3.7-7.1,4.9
				c-2.7,1.2-5.6,1.8-8.7,1.8c-3.1,0-6-0.6-8.7-1.8c-2.7-1.2-5.1-2.8-7.1-4.9c-2-2.1-3.6-4.6-4.8-7.5c-1.1-2.9-1.7-6.1-1.7-9.6
				c0-3.5,0.6-6.7,1.7-9.6c1.1-2.9,2.7-5.4,4.8-7.5c2-2.1,4.4-3.7,7.1-4.9c2.7-1.2,5.6-1.8,8.7-1.8c3.1,0,6,0.6,8.7,1.8
				c2.7,1.2,5.1,2.8,7.1,4.9c2,2.1,3.6,4.6,4.8,7.5C287.4,35,287.9,38.2,287.9,41.8z M278.6,41.8c0-2.2-0.4-4.2-1.1-6.1
				c-0.7-1.8-1.7-3.4-2.8-4.8c-1.2-1.3-2.6-2.4-4.1-3.1c-1.6-0.7-3.2-1.1-4.9-1.1c-1.7,0-3.3,0.4-4.9,1.1c-1.6,0.7-3,1.8-4.1,3.1
				c-1.2,1.3-2.1,2.9-2.8,4.8c-0.7,1.8-1.1,3.9-1.1,6.1c0,2.2,0.4,4.2,1.1,6.1s1.7,3.4,2.8,4.8c1.2,1.3,2.6,2.4,4.1,3.1
				c1.6,0.7,3.2,1.1,4.9,1.1c1.7,0,3.3-0.4,4.9-1.1c1.6-0.7,3-1.8,4.1-3.1c1.2-1.3,2.1-2.9,2.8-4.8S278.6,44,278.6,41.8z"/>
			<path class="st0" d="M318.2,17.9c0.6,0,1,0,1.3,0.1c0.3,0.1,0.7,0.1,0.9,0.2c0.3,0.1,0.6,0.1,0.8,0.2v9.3
				c-0.3-0.1-0.6-0.1-0.9-0.2c-0.3-0.1-0.7-0.1-1.1-0.2c-0.4-0.1-0.7-0.1-1.1-0.1c-1.6,0-3.1,0.3-4.5,0.9c-1.4,0.6-2.6,1.5-3.6,2.5
				c-1,1-1.9,2.2-2.4,3.6c-0.6,1.4-0.9,2.8-0.9,4.4v26.4h-9.3V18.4h6.7l2.1,4.7c0.8-1,1.8-1.8,3-2.6c1-0.6,2.2-1.2,3.7-1.8
				C314.4,18.2,316.1,17.9,318.2,17.9z"/>
			<path class="st0" d="M335.9,50c0.3,2.1,1.1,3.7,2.4,4.9c1.3,1.2,3.3,1.8,5.9,1.8c2.9,0,5-0.6,6.3-1.7c1.3-1.1,2-2.5,2-4
				c0-1.4-0.6-2.4-1.9-3.2s-2.8-1.3-4.6-1.8c-1.8-0.5-3.8-1-6-1.5c-2.1-0.5-4.1-1.3-6-2.2c-1.8-1-3.4-2.3-4.6-3.9
				c-1.2-1.6-1.9-3.8-1.9-6.6c0-1.9,0.4-3.7,1.1-5.4c0.8-1.7,1.8-3.2,3.2-4.5c1.4-1.3,3.1-2.3,5-3c2-0.7,4.2-1.1,6.7-1.1
				c5.5,0,9.6,1.3,12.4,3.9c2.8,2.6,4.4,6.1,4.7,10.6h-9.3c-0.3-1.6-1.1-2.9-2.3-4c-1.3-1.1-3.1-1.7-5.4-1.7c-2.3,0-4.1,0.5-5.4,1.6
				c-1.2,1.1-1.9,2.3-1.9,3.6c0,1.4,0.6,2.4,1.9,3.2c1.2,0.7,2.8,1.3,4.6,1.8s3.8,1,6,1.5c2.1,0.5,4.1,1.3,6,2.2s3.4,2.3,4.6,3.9
				c1.2,1.6,1.9,3.8,1.9,6.6c0,4.1-1.5,7.6-4.5,10.4c-3,2.8-7.2,4.1-12.6,4.1c-5.7,0-10-1.3-12.9-4c-2.9-2.7-4.4-6.5-4.7-11.5H335.9
				z"/>
			<path class="st0" d="M398.9,65.1l-18.1-22.3v22.3h-9.3V-0.2h9.3v38.9l16.1-20.2h10.9l-18.1,21.8l20.7,24.9H398.9z"/>
			<path class="st0" d="M453.4,51.6c-0.8,1.9-1.7,3.7-2.9,5.4c-1.2,1.7-2.6,3.2-4.2,4.5c-1.7,1.3-3.6,2.3-5.8,3
				c-2.2,0.7-4.6,1.1-7.3,1.1c-3.1,0-6-0.6-8.7-1.8c-2.7-1.2-5.1-2.8-7.1-4.9c-2-2.1-3.6-4.6-4.8-7.5c-1.1-2.9-1.7-6.1-1.7-9.6
				c0-3.5,0.6-6.7,1.7-9.6c1.1-2.9,2.7-5.4,4.7-7.5c2-2.1,4.3-3.7,6.9-4.9c2.7-1.2,5.5-1.8,8.4-1.8s5.8,0.6,8.4,1.8
				c2.7,1.2,5,2.8,6.9,4.9c2,2.1,3.5,4.6,4.7,7.5c1.1,2.9,1.7,6.1,1.7,9.6c0,0.6,0,1.1-0.1,1.6c-0.1,0.5-0.1,1-0.2,1.3
				c-0.1,0.5-0.1,0.9-0.2,1.2h-33.2c0.1,1.5,0.6,2.8,1.2,4.1c0.7,1.3,1.6,2.5,2.6,3.5c1.1,1,2.3,1.8,3.8,2.4
				c1.5,0.6,3.1,0.9,4.7,0.9c2.8,0,5.1-0.6,6.7-1.8c1.7-1.2,2.9-2.3,3.6-3.4H453.4z M432.6,26.7c-3.1,0-5.7,1.1-7.9,3.2
				c-2.1,2.1-3.5,4.9-4,8.2h24.9c-0.6-3.4-1.9-6.1-4.1-8.2C439.2,27.8,436.3,26.7,432.6,26.7z"/>
		</g>
	</g>
	<g>
		<path class="st0" d="M22.5,173.9c-3.1,0-6-0.6-8.7-1.8c-2.7-1.2-5.1-2.8-7.1-4.9c-2-2.1-3.6-4.6-4.8-7.5c-1.1-2.9-1.7-6.1-1.7-9.6
			c0-3.5,0.6-6.7,1.7-9.6s2.7-5.4,4.8-7.5c2-2.1,4.4-3.7,7.1-4.9c2.7-1.2,5.6-1.8,8.7-1.8c2.2,0,4.1,0.3,5.7,0.8
			c1.6,0.6,2.9,1.1,4,1.8c1.2,0.8,2.3,1.6,3.2,2.6v-23.3h9.3v65.3h-6.7l-2.1-4.7c-0.9,1-2,1.8-3.2,2.6c-1.1,0.7-2.5,1.3-4.2,1.8
			C26.9,173.7,24.9,173.9,22.5,173.9z M23,135.1c-1.8,0-3.5,0.4-5.1,1.1c-1.6,0.7-3.1,1.8-4.3,3.1c-1.2,1.3-2.2,2.9-3,4.8
			c-0.7,1.8-1.1,3.9-1.1,6.1c0,2.2,0.4,4.2,1.1,6.1c0.7,1.8,1.7,3.4,3,4.8c1.2,1.3,2.7,2.4,4.3,3.1c1.6,0.7,3.3,1.1,5.1,1.1
			c1.8,0,3.5-0.4,5.1-1.1c1.6-0.7,3.1-1.8,4.3-3.1c1.2-1.3,2.2-2.9,3-4.8s1.1-3.9,1.1-6.1c0-2.2-0.4-4.2-1.1-6.1
			c-0.7-1.8-1.7-3.4-3-4.8c-1.2-1.3-2.7-2.4-4.3-3.1C26.6,135.4,24.8,135.1,23,135.1z"/>
		<path class="st0" d="M92.5,173.4l-2.1-4.7c-0.9,1-2,1.8-3.2,2.6c-1.1,0.7-2.5,1.3-4.2,1.8c-1.7,0.5-3.7,0.8-6.1,0.8
			c-3.1,0-6-0.6-8.7-1.8c-2.7-1.2-5.1-2.8-7.1-4.9c-2-2.1-3.6-4.6-4.8-7.5c-1.1-2.9-1.7-6.1-1.7-9.6c0-3.5,0.6-6.7,1.7-9.6
			s2.7-5.4,4.8-7.5c2-2.1,4.4-3.7,7.1-4.9c2.7-1.2,5.6-1.8,8.7-1.8c2.3,0,4.4,0.3,6.1,0.8c1.7,0.6,3.1,1.1,4.2,1.8
			c1.2,0.8,2.3,1.6,3.2,2.6l2.1-4.7h6.7v46.6H92.5z M64,150.1c0,2.2,0.4,4.2,1.1,6.1s1.7,3.4,3,4.8c1.2,1.3,2.7,2.4,4.3,3.1
			c1.6,0.7,3.3,1.1,5.1,1.1c1.8,0,3.5-0.4,5.1-1.1c1.6-0.7,3.1-1.8,4.3-3.1c1.2-1.3,2.2-2.9,3-4.8s1.1-3.9,1.1-6.1
			c0-2.2-0.4-4.2-1.1-6.1c-0.7-1.8-1.7-3.4-3-4.8c-1.2-1.3-2.7-2.4-4.3-3.1c-1.6-0.7-3.3-1.1-5.1-1.1c-1.8,0-3.5,0.4-5.1,1.1
			c-1.6,0.7-3.1,1.8-4.3,3.1c-1.2,1.3-2.2,2.9-3,4.8C64.4,145.8,64,147.9,64,150.1z"/>
		<path class="st0" d="M124.1,157.9c0,2.1,0.7,3.8,2.1,5.2c1.4,1.4,3.1,2.1,5.2,2.1c0.3,0,0.7,0,1.1-0.1c0.4,0,0.7-0.1,1.1-0.2
			c0.3-0.1,0.7-0.2,0.9-0.3v8.3c-0.4,0.2-0.9,0.4-1.4,0.5c-1,0.3-2.3,0.5-3.7,0.5c-2.1,0-4-0.4-5.8-1.1c-1.8-0.8-3.3-1.8-4.6-3.2
			c-1.3-1.4-2.3-3.1-3.1-5c-0.7-2-1.1-4.2-1.1-6.7v-22.3h-8.3v-8.8h3.6c1.8,0,3.3-0.6,4.5-1.8c1.2-1.2,1.8-2.7,1.8-4.5v-6.2h7.8
			v12.4h10.4v8.8h-10.4V157.9z"/>
		<path class="st0" d="M177.8,173.4l-2.1-4.7c-0.9,1-2,1.8-3.2,2.6c-1.1,0.7-2.5,1.3-4.2,1.8c-1.7,0.5-3.7,0.8-6.1,0.8
			c-3.1,0-6-0.6-8.7-1.8c-2.7-1.2-5.1-2.8-7.1-4.9c-2-2.1-3.6-4.6-4.8-7.5c-1.1-2.9-1.7-6.1-1.7-9.6c0-3.5,0.6-6.7,1.7-9.6
			s2.7-5.4,4.8-7.5c2-2.1,4.4-3.7,7.1-4.9c2.7-1.2,5.6-1.8,8.7-1.8c2.3,0,4.4,0.3,6.1,0.8c1.7,0.6,3.1,1.1,4.2,1.8
			c1.2,0.8,2.3,1.6,3.2,2.6l2.1-4.7h6.7v46.6H177.8z M149.3,150.1c0,2.2,0.4,4.2,1.1,6.1s1.7,3.4,3,4.8c1.2,1.3,2.7,2.4,4.3,3.1
			c1.6,0.7,3.3,1.1,5.1,1.1c1.8,0,3.5-0.4,5.1-1.1c1.6-0.7,3.1-1.8,4.3-3.1c1.2-1.3,2.2-2.9,3-4.8s1.1-3.9,1.1-6.1
			c0-2.2-0.4-4.2-1.1-6.1c-0.7-1.8-1.7-3.4-3-4.8c-1.2-1.3-2.7-2.4-4.3-3.1c-1.6-0.7-3.3-1.1-5.1-1.1c-1.8,0-3.5,0.4-5.1,1.1
			c-1.6,0.7-3.1,1.8-4.3,3.1c-1.2,1.3-2.2,2.9-3,4.8C149.7,145.8,149.3,147.9,149.3,150.1z"/>
		<path class="st0" d="M218.3,135.6H208v37.8h-9.3v-37.8h-5.7v-8.8h5.7v-3.1c0-2.5,0.4-4.7,1.1-6.7s1.7-3.6,3.1-5
			c1.3-1.4,2.9-2.5,4.6-3.2c1.8-0.8,3.7-1.1,5.8-1.1c0.8,0,1.5,0.1,2.1,0.2c0.6,0.1,1.2,0.2,1.7,0.4c0.6,0.2,1,0.4,1.5,0.5v8.3
			c-0.3-0.1-0.6-0.1-0.9-0.2c-0.3-0.1-0.7-0.1-1.1-0.2c-0.4-0.1-0.7-0.1-1.1-0.1c-2.1,0-3.8,0.7-5.2,2.1c-1.4,1.4-2.1,3.1-2.1,5.2
			v3.1h10.4V135.6z"/>
		<path class="st0" d="M267.2,150.1c0,3.5-0.6,6.7-1.7,9.6c-1.1,2.9-2.7,5.4-4.8,7.5c-2,2.1-4.4,3.7-7.1,4.9
			c-2.7,1.2-5.6,1.8-8.7,1.8c-3.1,0-6-0.6-8.7-1.8c-2.7-1.2-5.1-2.8-7.1-4.9c-2-2.1-3.6-4.6-4.8-7.5c-1.1-2.9-1.7-6.1-1.7-9.6
			c0-3.5,0.6-6.7,1.7-9.6c1.1-2.9,2.7-5.4,4.8-7.5c2-2.1,4.4-3.7,7.1-4.9c2.7-1.2,5.6-1.8,8.7-1.8c3.1,0,6,0.6,8.7,1.8
			c2.7,1.2,5.1,2.8,7.1,4.9c2,2.1,3.6,4.6,4.8,7.5C266.6,143.3,267.2,146.6,267.2,150.1z M257.9,150.1c0-2.2-0.4-4.2-1.1-6.1
			c-0.7-1.8-1.7-3.4-2.8-4.8c-1.2-1.3-2.6-2.4-4.1-3.1c-1.6-0.7-3.2-1.1-4.9-1.1c-1.7,0-3.3,0.4-4.9,1.1s-3,1.8-4.1,3.1
			c-1.2,1.3-2.1,2.9-2.8,4.8c-0.7,1.8-1.1,3.9-1.1,6.1c0,2.2,0.4,4.2,1.1,6.1s1.7,3.4,2.8,4.8c1.2,1.3,2.6,2.4,4.1,3.1
			s3.2,1.1,4.9,1.1c1.7,0,3.3-0.4,4.9-1.1c1.6-0.7,3-1.8,4.1-3.1c1.2-1.3,2.1-2.9,2.8-4.8S257.9,152.3,257.9,150.1z"/>
		<path class="st0" d="M297.4,126.2c0.6,0,1,0,1.3,0.1c0.3,0.1,0.7,0.1,0.9,0.2s0.6,0.1,0.8,0.2v9.3c-0.3-0.1-0.6-0.1-0.9-0.2
			c-0.3-0.1-0.7-0.1-1.1-0.2c-0.4-0.1-0.7-0.1-1.1-0.1c-1.6,0-3.1,0.3-4.5,0.9c-1.4,0.6-2.6,1.5-3.6,2.5c-1,1-1.9,2.2-2.4,3.6
			c-0.6,1.4-0.9,2.8-0.9,4.4v26.4h-9.3v-46.6h6.7l2.1,4.7c0.8-1,1.8-1.8,3-2.6c1-0.6,2.2-1.2,3.7-1.8
			C293.7,126.5,295.4,126.2,297.4,126.2z"/>
		<path class="st0" d="M347.6,159.9c-0.8,1.9-1.7,3.7-2.9,5.4c-1.2,1.7-2.6,3.2-4.2,4.5c-1.7,1.3-3.6,2.3-5.8,3
			c-2.2,0.7-4.6,1.1-7.3,1.1c-3.1,0-6-0.6-8.7-1.8c-2.7-1.2-5.1-2.8-7.1-4.9c-2-2.1-3.6-4.6-4.8-7.5c-1.1-2.9-1.7-6.1-1.7-9.6
			c0-3.5,0.6-6.7,1.7-9.6s2.7-5.4,4.7-7.5c2-2.1,4.3-3.7,6.9-4.9c2.7-1.2,5.5-1.8,8.4-1.8s5.8,0.6,8.4,1.8c2.7,1.2,5,2.8,6.9,4.9
			c2,2.1,3.5,4.6,4.7,7.5s1.7,6.1,1.7,9.6c0,0.6,0,1.1-0.1,1.6c-0.1,0.5-0.1,1-0.2,1.3c-0.1,0.5-0.1,0.9-0.2,1.2h-33.2
			c0.1,1.5,0.6,2.8,1.2,4.1c0.7,1.3,1.6,2.5,2.6,3.5c1.1,1,2.3,1.8,3.8,2.4c1.5,0.6,3.1,0.9,4.7,0.9c2.8,0,5.1-0.6,6.7-1.8
			c1.7-1.2,2.9-2.3,3.6-3.4H347.6z M326.8,135.1c-3.1,0-5.7,1.1-7.9,3.2c-2.1,2.1-3.5,4.9-4,8.2h24.9c-0.6-3.4-1.9-6.1-4.1-8.2
			C333.4,136.1,330.5,135.1,326.8,135.1z"/>
		<path class="st0" d="M380.5,126.2c2.6,0,5,0.5,7.3,1.5s4.3,2.4,6,4.1c1.7,1.8,3,3.9,4,6.4c1,2.5,1.5,5.2,1.5,8.2v26.9h-9.3v-26.9
			c0-1.5-0.3-3-0.9-4.4c-0.6-1.4-1.4-2.6-2.4-3.6c-1-1-2.2-1.9-3.5-2.5c-1.3-0.6-2.7-0.9-4.1-0.9c-1.6,0-3.1,0.3-4.5,0.9
			c-1.4,0.6-2.6,1.5-3.6,2.5c-1,1-1.9,2.2-2.4,3.6c-0.6,1.4-0.9,2.8-0.9,4.4v26.9h-9.3v-46.6h6.7l2.1,4.7c0.9-1,2-1.8,3.2-2.6
			c1.1-0.6,2.5-1.2,4.2-1.8C376.1,126.5,378.1,126.2,380.5,126.2z"/>
		<path class="st0" d="M415.2,119.5c-1.6,0-2.9-0.6-4-1.7c-1.1-1.1-1.7-2.5-1.7-4c0-1.6,0.6-2.9,1.7-4s2.5-1.7,4-1.7
			c1.6,0,2.9,0.6,4,1.7c1.1,1.1,1.7,2.5,1.7,4c0,1.6-0.6,2.9-1.7,4C418.2,119,416.8,119.5,415.2,119.5z M419.9,173.4h-9.3v-46.6h9.3
			V173.4z"/>
		<path class="st0" d="M454.3,126.2c2.6,0,5,0.5,7.3,1.5c2.3,1,4.3,2.4,6,4.1c1.7,1.8,3,3.9,4,6.4c1,2.5,1.5,5.2,1.5,8.2v26.9h-9.3
			v-26.9c0-1.5-0.3-3-0.9-4.4c-0.6-1.4-1.4-2.6-2.4-3.6c-1-1-2.2-1.9-3.5-2.5c-1.3-0.6-2.7-0.9-4.1-0.9c-1.6,0-3.1,0.3-4.5,0.9
			c-1.4,0.6-2.6,1.5-3.6,2.5c-1,1-1.9,2.2-2.4,3.6c-0.6,1.4-0.9,2.8-0.9,4.4v26.9H432v-46.6h6.7l2.1,4.7c0.9-1,2-1.8,3.2-2.6
			c1.1-0.6,2.5-1.2,4.2-1.8C449.9,126.5,451.9,126.2,454.3,126.2z"/>
		<path class="st0" d="M525.3,126.8v44.6c0,2.8-0.5,5.5-1.5,7.9c-1,2.4-2.4,4.5-4.2,6.3c-1.8,1.8-4.1,3.1-6.7,4.1
			c-2.6,1-5.6,1.5-8.8,1.5c-2.8,0-5.4-0.4-7.7-1.2c-2.3-0.8-4.3-1.8-6-3.2c-1.7-1.3-3.1-2.9-4.2-4.6c-1.1-1.8-1.9-3.6-2.4-5.5h9.3
			c0.8,1.6,2,3,3.7,4.3c1.7,1.3,4.1,1.9,7.2,1.9c3.7,0,6.6-1.1,8.7-3.2c2.1-2.1,3.2-4.9,3.2-8.2v-4.7c-0.9,1-2,1.8-3.2,2.6
			c-1.1,0.7-2.5,1.3-4,1.8c-1.6,0.5-3.5,0.8-5.7,0.8c-2.8,0-5.5-0.6-8.1-1.8c-2.6-1.2-4.9-2.8-6.8-4.8c-1.9-2-3.5-4.4-4.6-7.2
			c-1.1-2.8-1.7-5.8-1.7-9c0-3.2,0.6-6.3,1.7-9c1.1-2.8,2.7-5.2,4.6-7.2c1.9-2,4.2-3.6,6.8-4.8c2.6-1.2,5.3-1.8,8.1-1.8
			c2.3,0,4.4,0.3,6.1,0.8c1.7,0.6,3.1,1.1,4.2,1.8c1.2,0.8,2.3,1.6,3.2,2.6l2.1-4.7H525.3z M504.2,163c1.7,0,3.3-0.4,4.8-1.1
			c1.6-0.7,2.9-1.7,4.1-3c1.2-1.3,2.1-2.8,2.8-4.5c0.7-1.7,1.1-3.5,1.1-5.4c0-1.9-0.4-3.7-1.1-5.4c-0.7-1.7-1.7-3.2-2.8-4.5
			c-1.2-1.3-2.6-2.3-4.1-3c-1.6-0.7-3.2-1.1-4.9-1.1c-1.7,0-3.3,0.4-4.9,1.1c-1.6,0.7-3,1.7-4.1,3c-1.2,1.3-2.1,2.8-2.8,4.5
			c-0.7,1.7-1.1,3.5-1.1,5.4c0,1.9,0.4,3.7,1.1,5.4c0.7,1.7,1.7,3.2,2.9,4.5c1.2,1.3,2.6,2.3,4.1,3C500.8,162.7,502.4,163,504.2,163
			z"/>
	</g>
</g>
</svg>
