<?xml version="1.0" encoding="utf-8"?>
<!-- Generator: Adobe Illustrator 22.1.0, SVG Export Plug-In . SVG Version: 6.00 Build 0)  -->
<svg version="1.1" id="Layer_1" xmlns="http://www.w3.org/2000/svg" xmlns:xlink="http://www.w3.org/1999/xlink" x="0px" y="0px"
	 viewBox="0 0 100 78.2" style="enable-background:new 0 0 100 78.2;" xml:space="preserve">
<style type="text/css">
	.st0{fill:#FFFFFF;}
</style>
<g>
	<g>
		<path class="st0" d="M0.2,0c9.9,0.4,28.5,0.7,46.4,0.7h6.8C71.9,0.7,90.3,0.4,100,0v12.5c-9.9-0.4-28.5-0.7-46.4-0.7h-6.8
			c-18.4,0-36.9,0.2-46.6,0.7C0.2,12.5,0.2,0,0.2,0z"/>
	</g>
	<g>
		<path class="st0" d="M0.2,32.8c9.9,0.4,28.5,0.7,46.4,0.7h6.8c18.4,0,36.9-0.2,46.6-0.7v12.5c-9.9-0.4-28.5-0.7-46.4-0.7h-6.8
			c-18.4,0-36.9,0.2-46.6,0.7C0.2,45.3,0.2,32.8,0.2,32.8z"/>
	</g>
	<g>
		<path class="st0" d="M0.2,65.7c9.9,0.4,28.5,0.7,46.4,0.7h6.8c18.4,0,36.9-0.2,46.6-0.7v12.5c-9.9-0.4-28.5-0.7-46.4-0.7h-6.8
			c-18.4,0-36.9,0.2-46.6,0.7C0.2,78.2,0.2,65.7,0.2,65.7z"/>
	</g>
</g>
</svg>
